<svg xmlns="http://www.w3.org/2000/svg" width="30" height="30" fill="none" viewBox="0 0 30 30"><path fill="#000" fill-rule="evenodd" d="M25.0989 0H11.407V18.4767H29.8838V4.78488C29.8838 2.13372 27.7501 0 25.0989 0Z" clip-rule="evenodd"/><path fill="#000" fill-rule="evenodd" d="M7.13954 0H4.78488C2.13372 0 0 2.13372 0 4.78488V7.13954H7.13954V0Z" clip-rule="evenodd"/><path fill="#000" fill-rule="evenodd" d="M0 11.4072H7.13954V18.5467H0V11.4072Z" clip-rule="evenodd"/><path fill="#000" fill-rule="evenodd" d="M22.8198 29.8833H25.1744C27.8256 29.8833 29.9593 27.7496 29.9593 25.0984V22.8193H22.8198V29.8833Z" clip-rule="evenodd"/><path fill="#000" fill-rule="evenodd" d="M11.407 22.8193H18.5466V29.9589H11.407V22.8193Z" clip-rule="evenodd"/><path fill="#000" fill-rule="evenodd" d="M0 22.8193V25.174C0 27.8251 2.13372 29.9589 4.78488 29.9589H7.13954V22.8193H0Z" clip-rule="evenodd"/></svg>